<svg xmlns="http://www.w3.org/2000/svg" viewBox="0 0 100 100" style="enable-background:new 0 0 100 100" xml:space="preserve"><style>.st0{fill:none;stroke:#f5f5f5}.st0,.st1{stroke-miterlimit:10}.st1,.st2{fill:none;stroke:#f5f5f5;stroke-linecap:round;stroke-linejoin:round}.st4{display:none}.st5{display:inline;fill:none;stroke:#f5f5f5;stroke-linecap:round;stroke-linejoin:round;stroke-miterlimit:10}</style><g id="Слой_1"><path class="st0" d="M50.5 51.4v21.9M2.3 73.3V51.4M50.5 72.6c0 3.6-10.8 6.6-24.1 6.6s-24.1-3-24.1-6.6M50.5 65.3c0 3.6-10.8 6.6-24.1 6.6s-24.1-3-24.1-6.6M50.5 58c0 3.6-10.8 6.6-24.1 6.6S2.3 61.6 2.3 58"/><ellipse class="st0" cx="26.4" cy="50.7" rx="24.1" ry="6.6"/></g><path class="st1" d="M88.9 71.2c5.7-1.7 9.8-7 9.8-13.2 0-7.7-6.2-13.9-13.9-13.9-.5 0-1 0-1.5.1 1.4-2.6 2.2-5.6 2.2-8.8 0-10.5-8.5-19-19-19-9.7 0-17.6 7.2-18.8 16.6-2.6-2.1-6-3.4-9.7-3.4-7.2 0-13.2 5-14.9 11.7" id="Слой_2__x28_копия_x29_"/><g id="Слой_4"><path class="st2" d="M66.1 83.8c-1.8-.8-3.5-2.1-4.8-3.6"/><path d="M58.7 75.3c-.4-1.2-.6-2.5-.6-3.9 0-4.4 2.1-8.3 5.3-10.8" style="fill:none;stroke:#f5f5f5;stroke-linecap:round;stroke-linejoin:round;stroke-dasharray:13.5142,5.6309"/><path class="st2" d="M65.9 59.3c1.8-.8 3.7-1.3 5.8-1.3"/><path class="st1" d="M76.7 58.9c5 2 8.5 6.9 8.5 12.6C85.2 79 79.1 85 71.7 85M68.7 53.9l4.1 4.2-4.1 4.1"/><path class="st1" d="m74.3 88.9-4.1-4.1 4.1-4.1"/></g></svg>