<?xml version="1.0" encoding="utf-8"?>
<!-- Generator: Adobe Illustrator 25.0.1, SVG Export Plug-In . SVG Version: 6.00 Build 0)  -->
<svg version="1.1" id="Слой_1" xmlns="http://www.w3.org/2000/svg" xmlns:xlink="http://www.w3.org/1999/xlink" x="0px" y="0px"
	 viewBox="0 0 800 800" style="enable-background:new 0 0 800 800;" xml:space="preserve">
<style type="text/css">
	.st0{fill:#F5F5F5;}
</style>
<g>
	<path class="st0" d="M398.5,10.9C178.4,10.9,0,189.3,0,409.4c0,176,114.2,325.4,272.5,378.1c19.9,3.7,27.2-8.6,27.2-19.2
		c0-9.5-0.4-40.9-0.5-74.2c-110.9,24.1-134.2-47-134.2-47c-18.1-46.1-44.2-58.3-44.2-58.3c-36.2-24.7,2.7-24.2,2.7-24.2
		c40,2.8,61.1,41.1,61.1,41.1c35.5,60.9,93.2,43.3,115.9,33.1c3.6-25.8,13.9-43.3,25.3-53.3c-88.5-10.1-181.5-44.2-181.5-196.9
		c0-43.5,15.6-79,41.1-107c-4.1-10-17.8-50.6,3.9-105.4c0,0,33.5-10.7,109.6,40.8c31.8-8.8,65.9-13.3,99.7-13.4
		c33.9,0.1,68,4.6,99.8,13.4c76.1-51.6,109.5-40.8,109.5-40.8c21.7,54.9,8,95.4,3.9,105.4c25.5,27.9,41,63.4,41,107
		c0,153-93.2,186.7-181.9,196.6c14.3,12.4,27,36.6,27,73.8c0,53.3-0.5,96.2-0.5,109.3c0,10.6,7.2,23,27.4,19.1
		c158.2-52.7,272.3-202,272.3-378C796.9,189.3,618.5,10.9,398.5,10.9"/>
	<path class="st0" d="M149.2,578.5c-0.9,2-4,2.6-6.8,1.2c-2.9-1.3-4.5-4-3.6-6c0.9-2,4-2.6,6.9-1.2
		C148.6,573.8,150.2,576.6,149.2,578.5 M168.8,596c-1.9,1.8-5.6,0.9-8.1-1.8c-2.6-2.8-3.1-6.5-1.2-8.3c2-1.8,5.6-0.9,8.2,1.8
		C170.3,590.6,170.8,594.3,168.8,596 M182.3,618.4c-2.4,1.7-6.4,0.1-8.9-3.4c-2.4-3.5-2.4-7.8,0.1-9.5c2.5-1.7,6.4-0.2,8.9,3.3
		C184.8,612.4,184.8,616.7,182.3,618.4 M205,644.3c-2.2,2.4-6.8,1.8-10.2-1.5c-3.5-3.2-4.5-7.8-2.3-10.2c2.2-2.4,6.9-1.7,10.3,1.5
		C206.3,637.3,207.4,641.9,205,644.3 M234.4,653.1c-1,3.1-5.4,4.5-10,3.2c-4.5-1.4-7.5-5-6.5-8.2c0.9-3.1,5.4-4.6,10-3.2
		C232.4,646.3,235.3,649.9,234.4,653.1 M267.9,656.8c0.1,3.3-3.7,6-8.5,6.1c-4.8,0.1-8.6-2.6-8.7-5.8c0-3.3,3.7-6,8.5-6.1
		C264,650.9,267.9,653.5,267.9,656.8 M300.7,655.5c0.6,3.2-2.7,6.5-7.4,7.4c-4.6,0.8-8.9-1.1-9.5-4.3c-0.6-3.3,2.8-6.6,7.4-7.4
		C295.9,650.3,300.1,652.3,300.7,655.5"/>
</g>
</svg>
