<svg xmlns="http://www.w3.org/2000/svg" shape-rendering="geometricPrecision" text-rendering="geometricPrecision" image-rendering="optimizeQuality" fill-rule="evenodd" clip-rule="evenodd" viewBox="0 0 453 511.5"><path fill-rule="nonzero" d="m358.26 162.3-199.97.01 3.52 39.36h191.52c4.57 0 8.28 3.71 8.28 8.29l-15.03 168.43a8.268 8.268 0 0 1-6.05 7.26l-112.05 31.07c-1.53.42-3.07.38-4.49-.02l-111.84-31.04a8.28 8.28 0 0 1-6.08-7.71l-7.62-85.37c-.39-4.56 2.99-8.57 7.54-8.97l.71-.03v-.03h54.85c4.59 0 8.32 3.72 8.32 8.31l3.31 37.11 53.09 14.3 53.28-14.37 5-56.04H104.27c-4.41 0-8.01-3.44-8.27-7.79L81.31 100.1c-.4-4.56 2.98-8.58 7.53-8.97l.72-.03v-.03h273.63c4.59 0 8.32 3.72 8.32 8.31 0 .52-.05 1.02-.14 1.51l-4.82 53.83c-.37 4.33-4.01 7.59-8.29 7.58zM17.37 16.6l38.39 430.66 170.49 47.34 170.94-47.4 38.47-430.61-418.29.01zm22.41 437.83L.14 9.83A8.32 8.32 0 0 1 8.32 0l436.4.02.71.03c4.56.4 7.93 4.41 7.54 8.97l-39.75 444.91c-.12 3.53-2.49 6.73-6.08 7.72l-178.62 49.52a8.21 8.21 0 0 1-4.48.02L45.82 461.71c-3.24-.91-5.74-3.74-6.04-7.28zm109.46-308.75h201.49l3.4-37.98H98.61l13.23 148.59H293.6l.71.03c4.56.39 7.93 4.41 7.54 8.96l-6.26 70.23a8.318 8.318 0 0 1-6.17 7.93l-60.77 16.39a8.31 8.31 0 0 1-4.51.07l-60.84-16.39c-3.26-.9-5.8-3.75-6.11-7.31l-3.21-36.02h-38.22l6.33 71.03 104.18 28.91 104.32-28.91 13.68-152.97H154.23c-4.25 0-7.88-3.26-8.25-7.57l-4.92-55.16c-.09-.49-.14-1-.14-1.51 0-4.59 3.73-8.32 8.32-8.32z"/></svg>