<svg xmlns="http://www.w3.org/2000/svg" viewBox="0 0 122.9 122.9" style="enable-background:new 0 0 122.9 122.9" xml:space="preserve"><path d="M97.7 0H25.2C11.3 0 0 11.3 0 25.2v72.5c0 13.9 11.3 25.2 25.2 25.2h72.5c13.9 0 25.2-11.3 25.2-25.2V25.2C122.8 11.3 111.6 0 97.7 0zm-54 90.2H30.4V50.4h13.3v39.8zM37.1 46c-3.7 0-6.7-3-6.7-6.6 0-3.7 3-6.7 6.6-6.7 3.7 0 6.6 3 6.6 6.6.1 3.7-2.8 6.6-6.5 6.7zm55.3 44.2H79.7V71.3c0-4.5-.1-10.3-6.7-10.3s-7.7 4.9-7.7 10v19.2H52.6V50.4h12.3v6.3h.1c1.7-3.1 5.9-6.3 12.1-6.3 12.9 0 15.3 8 15.3 18.5v21.3z" style="fill-rule:evenodd;clip-rule:evenodd;fill:#f5f5f5"/></svg>