<?xml version="1.0" encoding="utf-8"?>
<!-- Generator: Adobe Illustrator 25.0.1, SVG Export Plug-In . SVG Version: 6.00 Build 0)  -->
<svg version="1.1" xmlns="http://www.w3.org/2000/svg" xmlns:xlink="http://www.w3.org/1999/xlink" x="0px" y="0px"
	 viewBox="0 0 100 100" style="enable-background:new 0 0 100 100;" xml:space="preserve">
<style type="text/css">
	.st0{display:none;}
	.st1{display:inline;fill:none;stroke:#F5F5F5;stroke-miterlimit:10;}
	.st2{display:inline;fill:none;stroke:#F5F5F5;stroke-linecap:round;stroke-linejoin:round;stroke-miterlimit:10;}
	.st3{fill:none;stroke:#F5F5F5;stroke-linecap:round;stroke-linejoin:round;stroke-miterlimit:10;}
	.st4{fill:#F5F5F5;}
</style>
<g id="Слой_1">
	<g id="Слой_1_1_" class="st0">
		<line class="st1" x1="50.5" y1="51.4" x2="50.5" y2="73.3"/>
		<line class="st1" x1="2.3" y1="73.3" x2="2.3" y2="51.4"/>
		<path class="st1" d="M50.5,72.6c0,3.6-10.8,6.6-24.1,6.6s-24.1-3-24.1-6.6"/>
		<path class="st1" d="M50.5,65.3c0,3.6-10.8,6.6-24.1,6.6s-24.1-3-24.1-6.6"/>
		<path class="st1" d="M50.5,58c0,3.6-10.8,6.6-24.1,6.6S2.3,61.6,2.3,58"/>
		<ellipse class="st1" cx="26.4" cy="50.7" rx="24.1" ry="6.6"/>
	</g>
	<g id="Слой_2__x28_копия_x29_" class="st0">
		<path class="st2" d="M88.9,71.2c5.7-1.7,9.8-7,9.8-13.2c0-7.7-6.2-13.9-13.9-13.9c-0.5,0-1,0-1.5,0.1c1.4-2.6,2.2-5.6,2.2-8.8
			c0-10.5-8.5-19-19-19c-9.7,0-17.6,7.2-18.8,16.6c-2.6-2.1-6-3.4-9.7-3.4c-7.2,0-13.2,5-14.9,11.7"/>
	</g>
	<g id="Слой_4" class="st0">
		<path class="st2" d="M66.1,83.8c-4.7-2.1-8-6.9-8-12.3C58.1,64,64.2,58,71.7,58"/>
		<path class="st2" d="M76.7,58.9c5,2,8.5,6.9,8.5,12.6C85.2,79,79.1,85,71.7,85"/>
		<polyline class="st2" points="68.7,53.9 72.8,58.1 68.7,62.2 		"/>
		<polyline class="st2" points="74.3,88.9 70.2,84.8 74.3,80.7 		"/>
	</g>
	<g id="Слой_5" class="st0">
		<path class="st2" d="M5.1,60.8V14.6c0-2.7,2.2-4.8,4.8-4.8h80.4c2.7,0,4.8,2.2,4.8,4.8V64c0,2.7-2.2,4.8-4.8,4.8H31.9"/>
		<path class="st2" d="M7.4,60.6V15.2c0-1.9,1.5-3.4,3.4-3.4h79.1c1.9,0,3.4,1.5,3.4,3.4v48.1c0,1.9-1.5,3.4-3.4,3.4H32.2"/>
	</g>
	<g id="Слой_7">
		<g>
			<path class="st3" d="M29.6,76.5v-2.9h-2.1c-0.1-1-0.4-1.9-0.8-2.8l1.8-1L27,67.3l-1.8,1.1c-0.6-0.8-1.3-1.4-2-2l1.1-1.9L21.8,63
				l-1.1,1.9c-0.9-0.3-1.8-0.6-2.7-0.7V62h-3v2.2c-1,0.1-1.9,0.4-2.7,0.7L11.2,63l-2.5,1.5l1.1,1.9c-0.7,0.6-1.4,1.2-2,2l-1.9-1.1
				l-1.5,2.5l1.9,1.1c-0.4,0.9-0.6,1.8-0.7,2.7H3.3v2.9h2.2c0.1,1,0.4,1.9,0.7,2.8l-1.8,1.1l1.5,2.5l1.8-1.1c0.6,0.8,1.3,1.5,2,2.1
				l-1,1.8l2.5,1.5l1-1.8c0.9,0.4,1.8,0.6,2.8,0.8v2h2.9v-2c1-0.1,1.9-0.4,2.8-0.7l1,1.7l2.5-1.5l-1-1.7c0.8-0.6,1.5-1.3,2.1-2.1
				l1.7,1l1.5-2.5l-1.8-1c0.4-0.9,0.6-1.8,0.7-2.8L29.6,76.5L29.6,76.5z M16.5,79c-2.2,0-3.9-1.8-3.9-3.9c0-2.2,1.8-3.9,3.9-3.9
				c2.2,0,3.9,1.8,3.9,3.9S18.7,79,16.5,79z"/>
		</g>
	</g>
</g>
<g id="Слой_2">
	<path class="st3" d="M24.3,60.6V13.2c0-3.4,2.7-6.1,6.1-6.1h36.7c3.4,0,6.1,2.7,6.1,6.1v64.6c0,3.4-2.7,6.1-6.1,6.1H30.4"/>
	<path class="st3" d="M26.4,62V15.1c0-3.4,2.7-6.1,6.1-6.1H65c3.4,0,6.1,2.7,6.1,6.1V76c0,3.4-2.7,6.1-6.1,6.1H32.5"/>
	<circle class="st4" cx="48.8" cy="77.3" r="1.9"/>
	<line class="st3" x1="43.2" y1="12.5" x2="53.8" y2="12.5"/>
	<rect x="30.9" y="25" class="st3" width="14" height="23.6"/>
	<rect x="48.5" y="25" class="st3" width="19.8" height="10.2"/>
	<rect x="48.5" y="38.9" class="st3" width="19.8" height="9.7"/>
	<rect x="30.9" y="52.3" class="st3" width="37.4" height="18.9"/>
</g>
</svg>
