<?xml version="1.0" encoding="utf-8"?>
<!-- Generator: Adobe Illustrator 25.0.1, SVG Export Plug-In . SVG Version: 6.00 Build 0)  -->
<svg version="1.1" id="Слой_1" xmlns="http://www.w3.org/2000/svg" xmlns:xlink="http://www.w3.org/1999/xlink" x="0px" y="0px"
	 viewBox="0 0 512 512" style="enable-background:new 0 0 512 512;" xml:space="preserve">
<style type="text/css">
	.st0{display:none;}
	.st1{fill:#F44336;}
	.st2{fill:#FF9800;}
</style>
<path class="st0" d="M134.9,399c4.4,12.5,10.2,26.7,16.4,34.2C83.2,508.9-24.9,440,5.2,353l58.6-195.5L134.9,399z M82.3,106.8
	c-4.6,17.2-3.9,35.3,1.1,52.3c30.6,102.8,67.1,228.6,78.8,255.4c50.2,89.6,188.6,35.4,151.9-74.8l-72.6-235.5
	C220.1,28.9,104.2,24.1,82.3,106.8z M148.6,157.4c-19.2-11.1-19.2-38.9,0-50s43.4,2.8,43.4,25S167.8,168.5,148.6,157.4z
	 M349.8,405.7c39.2,95.7,197.4,47.8,155-67.4l-72.6-235.5C402.5,4.2,243.1,43.6,273.8,152L349.8,405.7z M340.6,157.1
	c-19.2-11.1-19.2-38.9,0-50c19.2-11.1,43.4,2.8,43.4,25S359.8,168.2,340.6,157.1z"/>
<g>
	<path class="st1" d="M241.5,104.3c-21.4-75.3-137.3-80.2-159.3,2.6c-4.6,17.2-3.9,35.3,1.1,52.3c30.6,102.8,67.1,228.6,78.8,255.4
		c50.2,89.6,188.6,35.4,151.9-74.8L241.5,104.3z M148.6,157.4c-19.2-11.1-19.2-38.9,0-50s43.4,2.8,43.4,25
		C192,154.6,167.8,168.5,148.6,157.4z"/>
	<path class="st1" d="M63.8,157.4L5.2,353c-30,87,78.1,156,146.2,80.3c-6.2-7.5-12.1-21.8-16.4-34.2L63.8,157.4z"/>
</g>
<path class="st2" d="M504.8,338.2l-72.6-235.5C402.5,4.2,243.1,43.6,273.8,152l76,253.7C389,501.3,547.2,453.5,504.8,338.2z
	 M340.6,157.1c-19.2-11.1-19.2-38.9,0-50c19.2-11.1,43.4,2.8,43.4,25S359.8,168.2,340.6,157.1z"/>
</svg>
