<svg version="1.1" id="Слой_1" xmlns="http://www.w3.org/2000/svg" x="0" y="0" viewBox="0 0 512 512" style="enable-background:new 0 0 512 512" xml:space="preserve"><style>.st1{fill:#f44336}</style><path class="st1" d="M241.5 104.3C220.1 29 104.2 24.1 82.2 106.9c-4.6 17.2-3.9 35.3 1.1 52.3 30.6 102.8 67.1 228.6 78.8 255.4 50.2 89.6 188.6 35.4 151.9-74.8l-72.5-235.5zm-92.9 53.1c-19.2-11.1-19.2-38.9 0-50s43.4 2.8 43.4 25-24.2 36.1-43.4 25zM63.8 157.4 5.2 353c-30 87 78.1 156 146.2 80.3-6.2-7.5-12.1-21.8-16.4-34.2L63.8 157.4z"/><path d="m504.8 338.2-72.6-235.5C402.5 4.2 243.1 43.6 273.8 152l76 253.7c39.2 95.6 197.4 47.8 155-67.5zM340.6 157.1c-19.2-11.1-19.2-38.9 0-50 19.2-11.1 43.4 2.8 43.4 25s-24.2 36.1-43.4 25z" style="fill:#ff9800"/></svg>