<?xml version="1.0" encoding="utf-8"?>
<!-- Generator: Adobe Illustrator 21.1.0, SVG Export Plug-In . SVG Version: 6.00 Build 0)  -->
<svg version="1.1" id="Слой_1" xmlns="http://www.w3.org/2000/svg" xmlns:xlink="http://www.w3.org/1999/xlink" x="0px" y="0px"
	 viewBox="0 0 1920 4320" style="enable-background:new 0 0 1920 4320;" xml:space="preserve">
<style type="text/css">
	.st0{fill:#E4ECEF;stroke:#040C18;stroke-width:2;stroke-miterlimit:10;}
	.st1{fill:#0E3C51;}
	.st2{fill:#FFFFFF;stroke:#040C18;stroke-width:2;stroke-miterlimit:10;}
	.st3{fill:none;stroke:#040C18;stroke-width:2;stroke-miterlimit:10;}
	.st4{fill:#040C18;stroke:#E4ECEF;stroke-width:2;stroke-miterlimit:10;}
</style>
<path class="st0" d="M-0.5-0.5v225h1920v-225H-0.5z M183,91c0,6.6-5.4,12-12,12H95c-6.6,0-12-5.4-12-12V72c0-6.6,5.4-12,12-12h76
	c6.6,0,12,5.4,12,12V91z M521,114c0,6.6-5.4,12-12,12h-76c-6.6,0-12-5.4-12-12V95c0-6.6,5.4-12,12-12h76c6.6,0,12,5.4,12,12V114z
	 M880.5,107.5c0,6.6-5.4,12-12,12h-76c-6.6,0-12-5.4-12-12v-19c0-6.6,5.4-12,12-12h76c6.6,0,12,5.4,12,12V107.5z M1000,182
	c0,6.6-5.4,12-12,12h-76c-6.6,0-12-5.4-12-12v-19c0-6.6,5.4-12,12-12h76c6.6,0,12,5.4,12,12V182z M1359,91c0,6.6-5.4,12-12,12h-76
	c-6.6,0-12-5.4-12-12V72c0-6.6,5.4-12,12-12h76c6.6,0,12,5.4,12,12V91z M1603.5,126.5c0,6.6-5.4,12-12,12h-76c-6.6,0-12-5.4-12-12
	v-19c0-6.6,5.4-12,12-12h76c6.6,0,12,5.4,12,12V126.5z M1847,170c0,6.6-5.4,12-12,12h-76c-6.6,0-12-5.4-12-12v-19
	c0-6.6,5.4-12,12-12h76c6.6,0,12,5.4,12,12V170z"/>
<path class="st0" d="M728,155h-76c-6.6,0-12-5.4-12-12v-19c0-6.6,5.4-12,12-12h76c6.6,0,12,5.4,12,12v19
	C740,149.6,734.6,155,728,155z"/>
<path class="st0" d="M1048,104h-76c-6.6,0-12-5.4-12-12V73c0-6.6,5.4-12,12-12h76c6.6,0,12,5.4,12,12v19
	C1060,98.6,1054.6,104,1048,104z"/>
<path class="st0" d="M1207,169h-76c-6.6,0-12-5.4-12-12v-19c0-6.6,5.4-12,12-12h76c6.6,0,12,5.4,12,12v19
	C1219,163.6,1213.6,169,1207,169z"/>
<path class="st0" d="M1463,190h-76c-6.6,0-12-5.4-12-12v-19c0-6.6,5.4-12,12-12h76c6.6,0,12,5.4,12,12v19
	C1475,184.6,1469.6,190,1463,190z"/>
<path class="st0" d="M1761,125h-76c-6.6,0-12-5.4-12-12V94c0-6.6,5.4-12,12-12h76c6.6,0,12,5.4,12,12v19
	C1773,119.6,1767.6,125,1761,125z"/>
<path class="st0" d="M333,173h-84c-6.6,0-12-5.4-12-12v-10c0-6.6,5.4-12,12-12h84c6.6,0,12,5.4,12,12v10
	C345,167.6,339.6,173,333,173z"/>
<path class="st0" d="M1393,227v290h-293c-3-0.2-6-0.3-9-0.3h0c-87.3,0-158,70.7-158,158v0.3v0v1290H598h0h-1
	c-90.6,0-164,73.4-164,164v0c0,6.1,0.3,12.2,1,18.1v599.8c-0.7,5.9-1,12-1,18.1v0c0,90.6,73.4,164,164,164h1h0h693v1356
	c0,90.6,73.4,164,164,164h0c90.6,0,164-73.4,164-164V2765v0c0-90.6-73.4-164-164-164h0H762v-308h324c0.8,0,1.7,0,2.5,0
	c0.8,0,1.7,0,2.5,0h0c78.3,0,143.2-56.9,155.8-131.6c2.1-10.5,3.2-21.3,3.2-32.4v0c0-6.1-0.3-12.2-1-18.1V833h300.7
	c0.2,0,0.4,0,0.6,0c0.2,0,0.4,0,0.6,0h0c87.3,0,158-70.7,158-158V227H1393z"/>
<g>
	<path class="st1" d="M30,242v161c0,9.9,8.1,18,18,18s18-8.1,18-18v-4v-35c0-9.9,8.1-18,18-18s18,8.1,18,18v35v59
		c0,9.9,8.1,18,18,18s18-8.1,18-18v-55v-66c0-9.9,8.1-18,18-18s18,8.1,18,18v34c0,9.9,8.1,18,18,18s18-8.1,18-18V242H30z"/>
	<path class="st1" d="M210,242v161c0,9.9,8.1,18,18,18s18-8.1,18-18v-4v-35c0-9.9,8.1-18,18-18s18,8.1,18,18v35v59
		c0,9.9,8.1,18,18,18s18-8.1,18-18v-55v-66c0-9.9,8.1-18,18-18s18,8.1,18,18v34c0,9.9,8.1,18,18,18s18-8.1,18-18V242H210z"/>
	<path class="st1" d="M390,242v161c0,9.9,8.1,18,18,18s18-8.1,18-18v-4v-35c0-9.9,8.1-18,18-18s18,8.1,18,18v35v59
		c0,9.9,8.1,18,18,18s18-8.1,18-18v-55v-66c0-9.9,8.1-18,18-18s18,8.1,18,18v34c0,9.9,8.1,18,18,18s18-8.1,18-18V242H390z"/>
	<path class="st1" d="M570,242v161c0,9.9,8.1,18,18,18s18-8.1,18-18v-4v-35c0-9.9,8.1-18,18-18s18,8.1,18,18v35v59
		c0,9.9,8.1,18,18,18s18-8.1,18-18v-55v-66c0-9.9,8.1-18,18-18s18,8.1,18,18v34c0,9.9,8.1,18,18,18s18-8.1,18-18V242H570z"/>
	<path class="st1" d="M749,242v161c0,9.9,8.1,18,18,18s18-8.1,18-18v-4v-35c0-9.9,8.1-18,18-18s18,8.1,18,18v35v59
		c0,9.9,8.1,18,18,18s18-8.1,18-18v-55v-66c0-9.9,8.1-18,18-18s18,8.1,18,18v34c0,9.9,8.1,18,18,18s18-8.1,18-18V242H749z"/>
	<path class="st1" d="M929,242v161c0,9.9,8.1,18,18,18s18-8.1,18-18v-4v-35c0-9.9,8.1-18,18-18s18,8.1,18,18v35v59
		c0,9.9,8.1,18,18,18s18-8.1,18-18v-55v-66c0-9.9,8.1-18,18-18s18,8.1,18,18v34c0,9.9,8.1,18,18,18s18-8.1,18-18V242H929z"/>
	<path class="st1" d="M1109,243v161c0,9.9,8.1,18,18,18s18-8.1,18-18v-4v-35c0-9.9,8.1-18,18-18s18,8.1,18,18v35v59
		c0,9.9,8.1,18,18,18s18-8.1,18-18v-55v-66c0-9.9,8.1-18,18-18s18,8.1,18,18v34c0,9.9,8.1,18,18,18s18-8.1,18-18V243H1109z"/>
	<path class="st1" d="M1289,243v161c0,9.9,8.1,18,18,18s18-8.1,18-18v-4v-35c0-9.9,8.1-18,18-18s18,8.1,18,18v35v59
		c0,9.9,8.1,18,18,18s18-8.1,18-18v-55v-66c0-9.9,8.1-18,18-18s18,8.1,18,18v34c0,9.9,8.1,18,18,18s18-8.1,18-18V243H1289z"/>
	<path class="st1" d="M1469,243v161c0,9.9,8.1,18,18,18s18-8.1,18-18v-4v-35c0-9.9,8.1-18,18-18s18,8.1,18,18v35v59
		c0,9.9,8.1,18,18,18s18-8.1,18-18v-55v-66c0-9.9,8.1-18,18-18s18,8.1,18,18v34c0,9.9,8.1,18,18,18s18-8.1,18-18V243H1469z"/>
	<path class="st1" d="M1649,243v161c0,9.9,8.1,18,18,18s18-8.1,18-18v-4v-35c0-9.9,8.1-18,18-18s18,8.1,18,18v35v59
		c0,9.9,8.1,18,18,18s18-8.1,18-18v-55v-66c0-9.9,8.1-18,18-18s18,8.1,18,18v34c0,9.9,8.1,18,18,18s18-8.1,18-18V243H1649z"/>
	<path class="st1" d="M1827,243v161c0,9.9,8.1,18,18,18s18-8.1,18-18v-4v-35c0-9.9,8.1-18,18-18s18,8.1,18,18v35v59
		c0,9.9,8.1,18,18,18s18-8.1,18-18v-55v-66c0-9.9,8.1-18,18-18s18,8.1,18,18v34c0,9.9,8.1,18,18,18s18-8.1,18-18V243H1827z"/>
</g>
<path class="st0" d="M1799,225h-2h-178h-180h-180h-180v-1H899H720h-1H540H360H180H0v161c0,9.9,8.1,18,18,18s18-8.1,18-18v-4v-35
	c0-9.9,8.1-18,18-18s18,8.1,18,18v35v59c0,9.9,8.1,18,18,18s18-8.1,18-18v-55v-66c0-9.9,8.1-18,18-18s18,8.1,18,18v34
	c0,9.9,8.1,18,18,18s18-8.1,18-18v32c0,9.9,8.1,18,18,18s18-8.1,18-18v-4v-35c0-9.9,8.1-18,18-18s18,8.1,18,18v35v59
	c0,9.9,8.1,18,18,18s18-8.1,18-18v-55v-66c0-9.9,8.1-18,18-18s18,8.1,18,18v34c0,9.9,8.1,18,18,18s18-8.1,18-18v32
	c0,9.9,8.1,18,18,18s18-8.1,18-18v-4v-35c0-9.9,8.1-18,18-18s18,8.1,18,18v35v59c0,9.9,8.1,18,18,18s18-8.1,18-18v-55v-66
	c0-9.9,8.1-18,18-18s18,8.1,18,18v34c0,9.9,8.1,18,18,18s18-8.1,18-18v32c0,9.9,8.1,18,18,18s18-8.1,18-18v-4v-35
	c0-9.9,8.1-18,18-18s18,8.1,18,18v35v59c0,9.9,8.1,18,18,18s18-8.1,18-18v-55v-66c0-9.9,8.1-18,18-18s18,8.1,18,18v34
	c0,9.9,8.1,18,18,18c7.9,0,14.6-5.1,17-12.2V385c0,9.9,8.1,18,18,18s18-8.1,18-18v-4v-35c0-9.9,8.1-18,18-18s18,8.1,18,18v35v59
	c0,9.9,8.1,18,18,18s18-8.1,18-18v-55v-66c0-9.9,8.1-18,18-18s18,8.1,18,18v34c0,9.9,8.1,18,18,18s18-8.1,18-18v32
	c0,9.9,8.1,18,18,18s18-8.1,18-18v-4v-35c0-9.9,8.1-18,18-18s18,8.1,18,18v35v59c0,9.9,8.1,18,18,18s18-8.1,18-18v-55v-66
	c0-9.9,8.1-18,18-18s18,8.1,18,18v34c0,9.9,8.1,18,18,18s18-8.1,18-18v33c0,9.9,8.1,18,18,18s18-8.1,18-18v-4v-35
	c0-9.9,8.1-18,18-18s18,8.1,18,18v35v59c0,9.9,8.1,18,18,18s18-8.1,18-18v-55v-66c0-9.9,8.1-18,18-18s18,8.1,18,18v34
	c0,9.9,8.1,18,18,18s18-8.1,18-18v32c0,9.9,8.1,18,18,18s18-8.1,18-18v-4v-35c0-9.9,8.1-18,18-18s18,8.1,18,18v35v59
	c0,9.9,8.1,18,18,18s18-8.1,18-18v-55v-66c0-9.9,8.1-18,18-18s18,8.1,18,18v34c0,9.9,8.1,18,18,18s18-8.1,18-18v32
	c0,9.9,8.1,18,18,18s18-8.1,18-18v-4v-35c0-9.9,8.1-18,18-18s18,8.1,18,18v35v59c0,9.9,8.1,18,18,18s18-8.1,18-18v-55v-66
	c0-9.9,8.1-18,18-18s18,8.1,18,18v34c0,9.9,8.1,18,18,18s18-8.1,18-18v32c0,9.9,8.1,18,18,18s18-8.1,18-18v-4v-35
	c0-9.9,8.1-18,18-18s18,8.1,18,18v35v59c0,9.9,8.1,18,18,18s18-8.1,18-18v-55v-66c0-9.9,8.1-18,18-18s18,8.1,18,18v34
	c0,9.9,8.1,18,18,18c7,0,13-4,16-9.8V386c0,9.9,8.1,18,18,18s18-8.1,18-18v-4v-35c0-9.9,8.1-18,18-18s18,8.1,18,18v35v59
	c0,9.9,8.1,18,18,18s18-8.1,18-18v-55v-66c0-9.9,8.1-18,18-18s18,8.1,18,18v34c0,9.9,8.1,18,18,18s18-8.1,18-18V225H1799z"/>
<path class="st0" d="M1257,1385H924c-13.8,0-25-11.2-25-25v-66c0-13.8,11.2-25,25-25h333c13.8,0,25,11.2,25,25v66
	C1282,1373.8,1270.8,1385,1257,1385z"/>
<path class="st0" d="M762,2499H429c-13.8,0-25-11.2-25-25v-66c0-13.8,11.2-25,25-25h333c13.8,0,25,11.2,25,25v66
	C787,2487.8,775.8,2499,762,2499z"/>
<path class="st0" d="M1617,3456h-333c-13.8,0-25-11.2-25-25v-66c0-13.8,11.2-25,25-25h333c13.8,0,25,11.2,25,25v66
	C1642,3444.8,1630.8,3456,1617,3456z"/>
<path class="st0" d="M1763,4320h-578c-19.9,0-36-16.1-36-36v-45c0-19.9,16.1-36,36-36h578c19.9,0,36,16.1,36,36v45
	C1799,4303.9,1782.9,4320,1763,4320z"/>
<path class="st0" d="M1679,4203h-446v-15c0-31.5,25.5-57,57-57h332c31.5,0,57,25.5,57,57V4203z"/>
<line class="st2" x1="989" y1="781" x2="989" y2="1141"/>
<path class="st3" d="M1169,1725v424c0,37.4-30.6,68-68,68h0"/>
<line class="st2" x1="829" y1="2673" x2="1135" y2="2673"/>
<path class="st0" d="M1485,2665L1485,2665c47.9,0,87,39.1,87,87v402"/>
<line class="st2" x1="1554" y1="3567" x2="1554" y2="4059"/>
<line class="st4" x1="267" y1="804" x2="267" y2="1443"/>
<line class="st4" x1="413" y1="1105" x2="413" y2="1744"/>
<line class="st4" x1="1719" y1="919" x2="1719" y2="1558"/>
<line class="st4" x1="1683" y1="1105" x2="1683" y2="1744"/>
<line class="st4" x1="345" y1="1257" x2="345" y2="1581"/>
<line class="st4" x1="1666" y1="2044" x2="1666" y2="2683"/>
<line class="st4" x1="1812" y1="2345" x2="1812" y2="2984"/>
<line class="st4" x1="1744" y1="2497" x2="1744" y2="2821"/>
<line class="st4" x1="604" y1="2986" x2="604" y2="3625"/>
<line class="st4" x1="750" y1="3287" x2="750" y2="3926"/>
<line class="st4" x1="682" y1="3439" x2="682" y2="3763"/>
</svg>
