<svg version="1.1" id="Слой_1" xmlns="http://www.w3.org/2000/svg" xmlns:xlink="http://www.w3.org/1999/xlink" x="0" y="0" viewBox="0 0 100 48" style="enable-background:new 0 0 100 48" xml:space="preserve"><style>.st0{fill:#0f131e}</style><path class="st0" d="M.5 15.8V.8h7.4c1.7 0 3.1.3 4.4.9 1.3.6 2.3 1.5 3 2.6.7 1.1 1.1 2.4 1.1 4s-.4 2.9-1.1 4c-.7 1.1-1.7 2-3 2.6-1.3.6-2.7.9-4.4.9H.5zm5.1-4h2.1c.7 0 1.3-.1 1.9-.4.5-.3 1-.7 1.3-1.2.3-.5.5-1.2.5-2s-.2-1.4-.5-1.9-.7-.9-1.3-1.2c-.6-.2-1.2-.4-1.9-.4H5.6v7.1z"/><defs><filter id="Adobe_OpacityMaskFilter" filterUnits="userSpaceOnUse" x=".5" y=".8" width="15.9" height="15"><feColorMatrix values="-1 0 0 0 1 0 -1 0 0 1 0 0 -1 0 1 0 0 0 1 0" color-interpolation-filters="sRGB" result="source"/></filter></defs><mask maskUnits="userSpaceOnUse" x=".5" y=".8" width="15.9" height="15" id="SVGID_1_"><g style="filter:url(#Adobe_OpacityMaskFilter)"><image style="overflow:visible" width="21" height="20" xlink:href="83A2DEB.jpg" transform="translate(-2 -2)"/></g></mask><g style="opacity:.75;mask:url(#SVGID_1_)"><path d="M.5 15.8V.8h7.4c1.7 0 3.1.3 4.4.9 1.3.6 2.3 1.5 3 2.6.7 1.1 1.1 2.4 1.1 4s-.4 2.9-1.1 4c-.7 1.1-1.7 2-3 2.6-1.3.6-2.7.9-4.4.9H.5zm5.1-4h2.1c.7 0 1.3-.1 1.9-.4.5-.3 1-.7 1.3-1.2.3-.5.5-1.2.5-2s-.2-1.4-.5-1.9-.7-.9-1.3-1.2c-.6-.2-1.2-.4-1.9-.4H5.6v7.1z" style="fill:#070707"/></g><path class="st0" d="M26.1 16.1c-1.2 0-2.4-.2-3.4-.6-1-.4-1.9-.9-2.7-1.6-.8-.7-1.3-1.5-1.8-2.5-.4-1-.6-2-.6-3.1s.2-2.2.6-3.1c.4-1 1-1.8 1.8-2.5s1.7-1.3 2.7-1.6c1-.4 2.2-.6 3.4-.6 1.2 0 2.4.2 3.4.6 1 .4 1.9.9 2.7 1.6.8.7 1.3 1.5 1.8 2.5.4 1 .6 2 .6 3.1s-.2 2.2-.6 3.1c-.4 1-1 1.8-1.8 2.5s-1.7 1.3-2.7 1.6c-1.1.4-2.2.6-3.4.6zm0-4.1c.5 0 .9-.1 1.3-.3.4-.2.8-.4 1.1-.7.3-.3.5-.7.7-1.2.2-.5.3-1 .3-1.6 0-.6-.1-1.1-.3-1.6-.2-.5-.4-.9-.7-1.2-.3-.3-.7-.6-1.1-.7-.4-.2-.8-.3-1.3-.3s-.9.1-1.3.3c-.4.3-.8.5-1.1.8-.3.3-.5.7-.7 1.2-.2.5-.3 1-.3 1.6 0 .6.1 1.1.3 1.6.2.5.4.9.7 1.2.3.3.7.6 1.1.7.4.2.8.2 1.3.2zM41.2 16.1c-.9 0-1.7-.1-2.6-.2-.8-.1-1.6-.3-2.2-.5s-1.2-.5-1.7-.8l2-3.7c.6.3 1.1.6 1.7.8.6.2 1.1.4 1.7.5.6.1 1.1.2 1.7.2.4 0 .8 0 1.1-.1.3-.1.5-.2.7-.3.2-.1.2-.3.2-.5s-.1-.4-.4-.6c-.3-.1-.6-.3-1-.4-.4-.1-.9-.2-1.4-.4-.5-.1-1-.3-1.5-.5s-1-.4-1.4-.7c-.4-.3-.8-.7-1-1.1-.3-.5-.4-1-.4-1.7 0-1.1.3-2.1.9-3 .6-.8 1.5-1.5 2.6-2s2.5-.7 4.1-.7c1.1 0 2.2.1 3.1.3 1 .2 1.8.5 2.5 1l-1.8 3.7c-.6-.4-1.3-.7-2-.8-.7-.2-1.4-.3-2.2-.3-.5 0-.9 0-1.2.1-.3.1-.6.2-.7.4-.2.2-.2.3-.2.5s.1.4.4.6c.3.2.6.3 1 .4.4.1.9.2 1.4.3.5.1 1 .3 1.5.5s1 .4 1.4.7c.4.3.8.7 1 1.1.3.5.4 1 .4 1.7 0 1.1-.3 2.1-.9 2.9-.6.8-1.5 1.5-2.6 2-1.3.4-2.7.6-4.2.6zM60.2.8v5.3h-4.6V.8h-5.1v15h5.1v-5.5h4.6v5.5h5.1V.8zM75.6 16.1c-1.2 0-2.4-.2-3.4-.6-1-.4-1.9-.9-2.7-1.6-.8-.7-1.3-1.5-1.8-2.5-.4-1-.6-2-.6-3.1s.2-2.2.6-3.1c.4-1 1-1.8 1.8-2.5s1.7-1.3 2.7-1.6c1-.4 2.2-.6 3.4-.6C76.8.4 78 .6 79 1s1.9.9 2.7 1.6c.8.7 1.3 1.5 1.8 2.5.4 1 .6 2 .6 3.1s-.2 2.2-.6 3.1c-.4 1-1 1.8-1.8 2.5S80 15.1 79 15.4c-1 .5-2.2.7-3.4.7zm0-4.1c.5 0 .9-.1 1.3-.3.4-.2.8-.4 1.1-.7.3-.3.5-.7.7-1.2.2-.5.3-1 .3-1.6 0-.6-.1-1.1-.3-1.6-.2-.5-.4-.9-.7-1.2-.3-.3-.7-.6-1.1-.7-.4-.2-.8-.3-1.3-.3s-.9.1-1.3.3c-.4.2-.8.4-1.1.7-.3.3-.5.7-.7 1.2-.2.5-.3 1-.3 1.6 0 .6.1 1.1.3 1.6.2.5.4.9.7 1.2.3.3.7.6 1.1.7.4.3.8.3 1.3.3zM99.2 3.4c-.6-.9-1.3-1.5-2.4-2-1-.5-2.2-.7-3.6-.7H86v15h5V12h2.2c1.4 0 2.6-.2 3.6-.7 1-.5 1.8-1.1 2.4-2 .6-.8.8-1.8.8-3s-.3-2-.8-2.9zm-4.8 4.3c-.3.3-.9.5-1.6.5H91V4.7h1.8c.7 0 1.2.2 1.6.5.3.3.5.7.5 1.3 0 .5-.2.9-.5 1.2z"/><path d="M75.6 9.2v11.6c0 13.7-11.1 24.7-24.7 24.7h0c-13.7 0-24.7-11.1-24.7-24.7V9.2" style="fill:none;stroke:#0f131e;stroke-width:4;stroke-linecap:round;stroke-miterlimit:10"/></svg>