<svg width="269" height="40" viewBox="0 0 269 40" fill="none" xmlns="http://www.w3.org/2000/svg">
<path d="M155.274 9.65817H150.487V2.56416H144.077V9.65817H140.231V14.0171H144.163V26.1539C144.163 31.8804 145.872 33.3334 151.428 33.3334C152.881 33.3334 153.564 33.2479 155.359 33.1624V28.2906C154.675 28.3761 154.077 28.3761 153.393 28.3761C150.658 28.3761 150.573 27.3505 150.573 25.0428V14.0171H155.359L155.274 9.65817ZM169.034 9.23082C168.607 9.14535 168.094 9.05988 167.667 9.05988C164.419 8.97441 161.342 10.9402 160.06 13.9317V9.65817H153.906V32.9915H160.402V22.3077C160.402 18.0342 162.111 14.8718 166.556 14.8718C167.41 14.8718 168.265 14.9573 169.034 15.1283V9.23082ZM188.778 32.9915C187.923 31.0257 187.923 28.8035 187.923 26.6667V16.5812C187.923 10.0855 182.453 8.97441 177.667 8.97441C170.915 8.97441 167.154 11.624 166.812 16.8377H172.881C173.308 14.1881 174.59 13.2479 177.496 13.2479C180.402 13.2479 181.769 14.2736 181.769 16.4103C181.769 18.2906 180.231 18.6325 176.043 19.2308C171.428 19.8291 165.786 20.5129 165.786 26.6667C165.786 31.0257 168.949 33.7607 174.163 33.7607C176.983 33.8462 179.718 32.7351 181.769 30.8547C181.769 31.624 181.94 32.3932 182.197 33.077L188.778 32.9915ZM181.769 21.624V24.2735C181.769 27.6069 179.376 29.4872 176.043 29.4872C173.821 29.4872 172.453 28.2906 172.453 26.3248C172.453 23.5043 174.932 23.1624 177.154 22.8206C178.863 22.6496 180.231 22.5641 181.769 21.624ZM210.915 24.0171H204.675C204.163 27.0941 202.453 28.718 199.633 28.718C196.214 28.718 194.163 26.0684 194.163 21.3676C194.163 16.5812 196.214 13.7607 199.718 13.7607C202.197 13.7607 203.906 15.2137 204.333 17.7778H210.658C210.145 12.3077 205.957 8.97441 199.633 8.97441C192.368 8.97441 187.581 13.9317 187.581 21.5385C187.581 28.8035 192.282 33.5898 199.547 33.5898C205.872 33.5898 210.06 30.0855 210.915 24.0171ZM232.88 9.65817H225.274L216.983 18.0342V0.769287H210.658V32.9915H216.983V25.0428L219.633 22.5641L226.128 32.906H233.992L224.077 18.2052L232.88 9.65817ZM253.735 25.812H247.581C246.641 28.2052 245.188 29.2308 242.795 29.2308C239.376 29.2308 237.41 27.0941 237.325 22.9915H254.162V22.3932C254.162 14.1881 249.633 9.05988 242.539 9.05988C235.701 9.05988 230.744 14.2736 230.744 21.5385C230.744 28.8889 235.53 33.7607 242.795 33.7607C248.009 33.6752 252.282 30.8547 253.735 25.812ZM247.496 18.8889H237.239C237.581 15.6411 239.633 13.6753 242.453 13.6753C245.701 13.6753 247.239 16.0684 247.496 18.8889ZM268.436 9.23082C268.009 9.14535 267.496 9.05988 267.068 9.05988C263.821 8.97441 260.744 10.9402 259.462 13.9317V9.65817H253.308V32.9915H259.804V22.3077C259.804 18.0342 261.513 14.8718 265.957 14.8718C266.812 14.8718 267.667 14.9573 268.436 15.1283V9.23082Z" fill="white"/>
<path d="M103.479 39.2309H98.0942C97.5814 39.2309 97.2395 38.889 97.2395 38.3762V31.795C97.2395 31.5386 97.325 31.3677 97.496 31.1967C97.6669 31.0258 97.9233 30.9403 98.0942 30.9403H98.5216C98.9489 30.9403 98.9489 30.9403 99.9746 30.9403C101.94 30.9403 102.282 30.5984 102.282 30.0001C102.282 29.7437 102.197 29.5728 102.111 29.3164L101.257 26.9232C99.2054 31.0258 94.3336 32.9061 89.9746 32.9061C82.1968 32.9061 76.9832 28.1198 76.9832 20.9403C76.9832 13.6754 82.3678 8.46169 89.7182 8.46169C91.5985 8.37622 93.4789 8.80357 95.1883 9.48733C95.1883 9.40186 95.2737 9.40186 95.2737 9.31639C95.4447 9.05998 95.7011 8.97451 95.9575 8.97451H104.675C105.017 8.97451 105.359 9.23092 105.53 9.5728L107.923 18.1198C108.009 18.4617 108.094 18.7181 108.18 19.06C108.265 18.6326 108.351 18.2907 108.522 17.8634L110.915 9.5728C111 9.23092 111.342 8.97451 111.769 8.97451H120.231C120.487 8.97451 120.744 9.14545 120.915 9.31639C121 9.40186 121 9.48733 121 9.5728C122.795 8.80357 124.675 8.37622 126.641 8.37622C134.334 8.37622 139.376 13.5899 139.376 21.7095V22.3078C139.376 22.8207 139.034 23.1625 138.522 23.1625H123.65C123.906 24.5301 124.761 25.7266 126.898 25.7266C128.009 25.8121 129.12 25.2993 129.633 24.3591C129.804 24.1027 130.06 23.9318 130.402 23.9318H138.094C138.351 23.9318 138.607 24.0172 138.778 24.2736C138.949 24.4446 139.034 24.7865 138.949 25.0429C137.496 30.342 131.855 32.7352 126.983 32.7352C121.513 32.7352 117.24 30.342 115.188 26.3249L113.137 32.0514C111.257 37.436 108.778 39.2309 103.479 39.2309ZM98.9489 37.5215H103.479C108.094 37.5215 109.804 36.2394 111.513 31.6241L114.334 23.6754C114.419 23.3335 114.761 23.0771 115.188 23.0771C115.53 23.0771 115.872 23.3335 115.957 23.7608C117.154 28.3762 121.342 31.1967 126.898 31.1967C130.744 31.1967 135.188 29.4873 136.812 25.8121H130.829C129.889 27.0087 128.436 27.7779 126.812 27.607C123.906 27.607 121.94 25.7266 121.855 22.4788C121.855 22.2224 121.94 22.0514 122.111 21.8805C122.282 21.7095 122.539 21.6241 122.71 21.6241H137.667C137.581 14.5301 133.393 10.1711 126.641 10.1711C124.248 10.1711 122.026 10.7694 120.146 12.0514C119.804 12.2224 119.462 12.2224 119.12 11.966C118.863 11.795 118.693 11.3677 118.863 11.0258L118.949 10.6839H112.368L110.146 18.2907C109.804 19.5728 109.547 20.7694 109.034 23.5044C108.949 23.9318 108.607 24.1882 108.18 24.1882C107.752 24.1882 107.41 23.8463 107.325 23.4189C107.069 21.795 106.727 20.1711 106.299 18.5472L104.077 10.6839H97.1541V10.7694C97.2395 11.1113 97.1541 11.4531 96.8977 11.7096C96.6413 11.966 96.2139 11.966 95.872 11.795C93.9917 10.6839 91.8549 10.0856 89.6327 10.0856C83.2225 10.1711 78.6926 14.6155 78.6926 20.8548C78.6926 27.9489 84.419 31.1112 89.9746 31.1112C93.8207 31.1112 98.2652 29.4018 99.8891 25.7266H93.8207C92.8806 26.9232 91.4276 27.6924 89.8037 27.5215C86.8977 27.5215 84.9319 25.6412 84.8464 22.3933C84.8464 22.1369 84.9319 21.966 85.1028 21.795C85.2737 21.6241 85.5302 21.5386 85.7011 21.5386H100.487C100.829 21.5386 101.171 21.795 101.257 22.1369L103.65 28.7181C103.821 29.06 103.906 29.5728 103.992 30.0001C103.992 32.6497 101.086 32.6497 99.9746 32.6497C99.3763 32.6497 99.1199 32.6497 98.9489 32.6497V37.5215ZM86.7267 23.248C86.9831 24.6155 87.8378 25.8121 89.9746 25.8121C91.0857 25.8976 92.1968 25.3848 92.7096 24.4446C92.8806 24.1882 93.137 24.0172 93.4789 24.0172H100.316L100.06 23.248H86.7267ZM130.487 19.1454H122.71C122.453 19.1454 122.197 19.06 122.026 18.8036C121.855 18.5472 121.769 18.3762 121.855 18.1198C122.453 14.5301 124.761 13.7608 126.641 13.7608C129.291 13.7608 131 15.3848 131.257 18.2053C131.257 18.4617 131.171 18.7181 131 18.889C130.915 19.06 130.744 19.1454 130.487 19.1454ZM123.821 17.436H129.462C129.12 16.154 128.18 15.4702 126.727 15.4702C125.188 15.4702 124.248 16.0685 123.821 17.436ZM93.5643 19.1454H85.7866C85.5302 19.1454 85.2737 19.06 85.1028 18.8036C84.9319 18.5472 84.8464 18.3762 84.9319 18.1198C85.5302 14.5301 87.9233 13.7608 89.7182 13.7608C92.3678 13.7608 94.0772 15.3848 94.3336 18.2053C94.3336 18.4617 94.2481 18.7181 94.0772 18.889C93.9917 19.06 93.8207 19.1454 93.5643 19.1454ZM86.8977 17.436H92.5387C92.1968 16.154 91.2566 15.4702 89.8037 15.4702C88.2652 15.4702 87.325 16.0685 86.8977 17.436Z" fill="white"/>
<path d="M1.39311 19.999C1.45003 19.8959 1.51749 19.7759 1.59567 19.6405C1.89874 19.1153 2.36237 18.358 2.99641 17.4457C4.26527 15.6201 6.21171 13.1811 8.91323 10.7423C14.3077 5.8723 22.7114 1 34.7952 1C46.9623 1 55.4071 5.87384 60.821 10.7435C63.5324 13.1823 65.4836 15.6211 66.7548 17.4465C67.39 18.3586 67.8542 19.1158 68.1575 19.6409C68.2359 19.7766 68.3035 19.8967 68.3605 20C68.3035 20.1032 68.2359 20.2234 68.1575 20.3591C67.8542 20.8842 67.39 21.6414 66.7548 22.5535C65.4836 24.3789 63.5324 26.8177 60.821 29.2565C55.4074 34.1259 46.9633 38.9994 34.7974 39C22.7121 38.959 14.3072 34.0859 8.91246 29.2258C6.21075 26.7918 4.26428 24.3604 2.99547 22.5412C2.36146 21.6322 1.89786 20.8777 1.59483 20.3547C1.51703 20.2204 1.44985 20.1014 1.39311 19.999Z" stroke="white" stroke-width="2"/>
<path d="M34.8765 1.76929C44.9632 1.76929 53.1073 9.89593 53.1073 20.0001C53.1073 30.1042 44.9632 38.2308 34.8765 38.2308C24.7899 38.2308 16.6458 30.1042 16.6458 20.0001C16.6458 9.89593 24.7899 1.76929 34.8765 1.76929Z" stroke="white" stroke-width="2"/>
<path d="M34.1074 0.769287H36.4151V39.2308H34.1074V0.769287Z" fill="white"/>
<path d="M34.8766 25.3847C37.8504 25.3847 40.2612 22.9739 40.2612 20.0001C40.2612 17.0263 37.8504 14.6155 34.8766 14.6155C31.9027 14.6155 29.4919 17.0263 29.4919 20.0001C29.4919 22.9739 31.9027 25.3847 34.8766 25.3847Z" fill="white"/>
</svg>
