<?xml version="1.0" encoding="utf-8"?>
<!-- Generator: Adobe Illustrator 21.1.0, SVG Export Plug-In . SVG Version: 6.00 Build 0)  -->
<svg version="1.1" xmlns="http://www.w3.org/2000/svg" xmlns:xlink="http://www.w3.org/1999/xlink" x="0px" y="0px"
	 viewBox="0 0 100 100" style="enable-background:new 0 0 100 100;" xml:space="preserve">
<style type="text/css">
	.st0{fill:none;stroke:#F5F5F5;stroke-miterlimit:10;}
	.st1{fill:none;stroke:#F5F5F5;stroke-linecap:round;stroke-linejoin:round;stroke-miterlimit:10;}
	.st2{fill:none;stroke:#F5F5F5;stroke-linecap:round;stroke-linejoin:round;}
	.st3{fill:none;stroke:#F5F5F5;stroke-linecap:round;stroke-linejoin:round;stroke-dasharray:13.5142,5.6309;}
	.st4{display:none;}
	.st5{display:inline;fill:none;stroke:#F5F5F5;stroke-linecap:round;stroke-linejoin:round;stroke-miterlimit:10;}
	.st6{display:inline;fill:none;stroke:#F5F5F5;stroke-width:2;stroke-linecap:round;stroke-linejoin:round;stroke-miterlimit:10;}
	.st7{display:inline;}
</style>
<g id="Слой_1">
	<line class="st0" x1="50.5" y1="51.4" x2="50.5" y2="73.3"/>
	<line class="st0" x1="2.3" y1="73.3" x2="2.3" y2="51.4"/>
	<path class="st0" d="M50.5,72.6c0,3.6-10.8,6.6-24.1,6.6S2.3,76.2,2.3,72.6"/>
	<path class="st0" d="M50.5,65.3c0,3.6-10.8,6.6-24.1,6.6S2.3,68.9,2.3,65.3"/>
	<path class="st0" d="M50.5,58c0,3.6-10.8,6.6-24.1,6.6S2.3,61.6,2.3,58"/>
	<ellipse class="st0" cx="26.4" cy="50.7" rx="24.1" ry="6.6"/>
</g>
<g id="Слой_2__x28_копия_x29_">
	<path class="st1" d="M88.9,71.2c5.7-1.7,9.8-7,9.8-13.2c0-7.7-6.2-13.9-13.9-13.9c-0.5,0-1,0-1.5,0.1c1.4-2.6,2.2-5.6,2.2-8.8
		c0-10.5-8.5-19-19-19c-9.7,0-17.6,7.2-18.8,16.6c-2.6-2.1-6-3.4-9.7-3.4c-7.2,0-13.2,5-14.9,11.7"/>
</g>
<g id="Слой_4">
	<g>
		<g>
			<path class="st2" d="M66.1,83.8c-1.8-0.8-3.5-2.1-4.8-3.6"/>
			<path class="st3" d="M58.7,75.3c-0.4-1.2-0.6-2.5-0.6-3.9c0-4.4,2.1-8.3,5.3-10.8"/>
			<path class="st2" d="M65.9,59.3c1.8-0.8,3.7-1.3,5.8-1.3"/>
		</g>
	</g>
	<path class="st1" d="M76.7,58.9c5,2,8.5,6.9,8.5,12.6C85.2,79,79.1,85,71.7,85"/>
	<polyline class="st1" points="68.7,53.9 72.8,58.1 68.7,62.2 	"/>
	<polyline class="st1" points="74.3,88.9 70.2,84.8 74.3,80.7 	"/>
</g>
<g id="Слой_5" class="st4">
	<path class="st5" d="M5.1,60.8V14.6c0-2.7,2.2-4.8,4.8-4.8h80.4c2.7,0,4.8,2.2,4.8,4.8v49.4c0,2.7-2.2,4.8-4.8,4.8H31.9"/>
	<path class="st5" d="M7.4,60.6V15.2c0-1.9,1.5-3.4,3.4-3.4h79.1c1.9,0,3.4,1.5,3.4,3.4v48.1c0,1.9-1.5,3.4-3.4,3.4H32.2"/>
	<path class="st5" d="M69.4,89.3H30.7c-0.6,0-1.2-0.5-1.2-1.2v-2.7c0-0.6,0.5-1.2,1.2-1.2h38.7c0.6,0,1.2,0.5,1.2,1.2v2.7
		C70.6,88.7,70.1,89.3,69.4,89.3z"/>
	<rect x="36.2" y="68.8" class="st5" width="27.8" height="15.5"/>
	<path class="st5" d="M25.8,34.5H13.5c-1.2,0-2.3-1-2.3-2.3V19.9c0-1.2,1-2.3,2.3-2.3h12.3c1.2,0,2.3,1,2.3,2.3v12.3
		C28.1,33.5,27,34.5,25.8,34.5z"/>
	<path class="st5" d="M46.1,34.5H33.8c-1.2,0-2.3-1-2.3-2.3V19.9c0-1.2,1-2.3,2.3-2.3h12.3c1.2,0,2.3,1,2.3,2.3v12.3
		C48.3,33.5,47.3,34.5,46.1,34.5z"/>
	<path class="st5" d="M25.8,54.8H13.5c-1.2,0-2.3-1-2.3-2.3V40.2c0-1.2,1-2.3,2.3-2.3h12.3c1.2,0,2.3,1,2.3,2.3v12.3
		C28.1,53.7,27,54.8,25.8,54.8z"/>
	<path class="st5" d="M46.1,54.8H33.8c-1.2,0-2.3-1-2.3-2.3V40.2c0-1.2,1-2.3,2.3-2.3h12.3c1.2,0,2.3,1,2.3,2.3v12.3
		C48.3,53.7,47.3,54.8,46.1,54.8z"/>
	<line class="st6" x1="61.3" y1="20.3" x2="79.3" y2="20.3"/>
	<line class="st5" x1="55" y1="26.1" x2="86.3" y2="26.1"/>
	<line class="st5" x1="55" y1="29.1" x2="86.3" y2="29.1"/>
	<line class="st5" x1="55" y1="32.1" x2="86.3" y2="32.1"/>
	<line class="st5" x1="55" y1="35.1" x2="86.3" y2="35.1"/>
	<line class="st5" x1="55" y1="38.1" x2="86.3" y2="38.1"/>
	<line class="st5" x1="55" y1="41.1" x2="86.3" y2="41.1"/>
	<circle class="st5" cx="57.5" cy="51.4" r="2.5"/>
	<circle class="st5" cx="65.5" cy="51.4" r="2.5"/>
	<circle class="st5" cx="73.5" cy="51.4" r="2.5"/>
</g>
<g id="Слой_7" class="st4">
	<g class="st7">
		<path class="st0" d="M29.6,76.5v-2.9h-2.1c-0.1-1-0.4-1.9-0.8-2.8l1.8-1l-1.5-2.5l-1.8,1.1c-0.6-0.8-1.3-1.4-2-2l1.1-1.9l-2.5-1.5
			l-1.1,1.9c-0.9-0.3-1.8-0.6-2.7-0.7v-2.2H15v2.2c-1,0.1-1.9,0.4-2.7,0.7l-1.1-1.9l-2.5,1.5l1.1,1.9c-0.7,0.6-1.4,1.2-2,2l-1.9-1.1
			l-1.5,2.5l1.9,1.1c-0.4,0.9-0.6,1.8-0.7,2.7H3.3v2.9h2.2c0.1,1,0.4,1.9,0.7,2.8l-1.8,1.1l1.5,2.5l1.8-1.1c0.6,0.8,1.3,1.5,2,2.1
			l-1,1.8l2.5,1.5l1-1.8c0.9,0.4,1.8,0.6,2.8,0.8v2h2.9v-2c1-0.1,1.9-0.4,2.8-0.7l1,1.7l2.5-1.5l-1-1.7c0.8-0.6,1.5-1.3,2.1-2.1
			l1.7,1l1.5-2.5l-1.8-1c0.4-0.9,0.6-1.8,0.7-2.8H29.6z M16.5,79c-2.2,0-3.9-1.8-3.9-3.9c0-2.2,1.8-3.9,3.9-3.9
			c2.2,0,3.9,1.8,3.9,3.9C20.4,77.2,18.7,79,16.5,79z"/>
	</g>
</g>
</svg>
