<?xml version="1.0" encoding="utf-8"?>
<!-- Generator: Adobe Illustrator 25.0.1, SVG Export Plug-In . SVG Version: 6.00 Build 0)  -->
<svg version="1.1"
	 id="Слой_1" text-rendering="geometricPrecision" shape-rendering="geometricPrecision" image-rendering="optimizeQuality"
	 xmlns="http://www.w3.org/2000/svg" xmlns:xlink="http://www.w3.org/1999/xlink" x="0px" y="0px" viewBox="0 0 3333 3333"
	 style="enable-background:new 0 0 3333 3333;" xml:space="preserve">
<style type="text/css">
	.st0{fill-rule:evenodd;clip-rule:evenodd;fill:#F5F5F5;}
</style>
<path class="st0" d="M1667,0c920,0,1667,746,1667,1667c0,920-746,1667-1667,1667C747,3334,0,2588,0,1667C0,747,746,0,1667,0z
	 M1259,1059c57,0,109,5,156,15s87,27,121,49c33,23,59,53,78,91c18,37,27,85,27,140c0,60-14,110-41,151c-28,40-68,73-122,99
	c74,21,128,58,164,111s54,117,54,192c0,61-12,113-35,157c-24,44-55,80-94,108s-85,49-136,62c-50,13-102,20-156,20H696V1060h563V1059
	z M1963,1155h484v118h-484V1155z M2071,2045c36,35,87,52,154,52c48,0,90-12,124-36s55-50,63-77h209c-34,104-85,178-154,223
	s-153,67-250,67c-68,0-129-11-184-33s-101-53-140-93c-38-40-67-88-88-144c-20-56-31-118-31-184c0-65,11-125,32-181
	c22-56,51-104,91-145c39-41,86-73,140-96c54-24,114-35,181-35c73,0,137,14,192,43c55,28,100,67,135,115s60,103,76,164s21,125,17,193
	h-624c0,68,23,133,59,167H2071z M2344,1591c-28-31-76-48-134-48c-38,0-69,6-94,19s-45,29-60,48s-26,39-32,61c-6,21-10,40-11,57h387
	c-6-61-27-105-55-137H2344z M1226,1541c47,0,85-11,116-33c30-22,45-58,45-108c0-28-5-51-15-69s-24-32-41-42s-36-17-58-21s-44-6-67-6
	H960v279H1226z M1240,2049c26,0,50-2,73-8c24-5,44-13,62-25c17-12,32-27,43-48c11-20,16-46,16-77c0-61-17-105-52-132
	c-34-26-80-39-137-39H960v329h281v1L1240,2049z"/>
</svg>
