<svg xmlns="http://www.w3.org/2000/svg" viewBox="0 0 31.3 25" style="enable-background:new 0 0 31.3 25" xml:space="preserve"><path d="M12.7 13.9c.1-2 1.1-3.8 2.6-5 1.4-1.2 3.4-2 5.5-2s4.1.7 5.5 2c1.5 1.2 2.5 3 2.6 5 .1 2.1-.7 4-2.2 5.4-1.5 1.4-3.6 2.3-5.9 2.3-2.4 0-4.5-.9-5.9-2.3-1.5-1.5-2.4-3.4-2.2-5.4z" style="fill:#fff"/><path d="M16.6 14c.1-1 .6-1.9 1.3-2.6.7-.6 1.7-1 2.8-1 1.1 0 2.1.4 2.8 1 .8.6 1.3 1.5 1.3 2.6.1 1.1-.4 2-1.1 2.8-.8.7-1.8 1.2-3 1.2s-2.3-.5-3-1.2c-.7-.7-1.2-1.7-1.1-2.8z" style="fill:#265787"/><path d="M10 16.1c0 .4.1 1.2.3 1.8a9.4 9.4 0 0 0 2 3.5c1 1.1 2.2 1.9 3.6 2.6 1.5.6 3 1 4.7 1 1.6 0 3.2-.3 4.7-1 1.4-.6 2.6-1.5 3.6-2.6s1.6-2.2 2-3.5c.2-.7.3-1.3.4-2 .1-.7 0-1.3-.1-2-.2-1.3-.6-2.5-1.3-3.6-.6-1-1.4-1.9-2.4-2.6L17.9.3c-.6-.5-1.7-.5-2.4 0s-.8 1.3-.2 1.8l4 3.3H7.1c-1 0-2 .7-2.2 1.5-.1.9.6 1.6 1.6 1.6h6.2L1.7 17c-1 .8-1.4 2.1-.7 3 .6.8 2 .8 3 0l6-4.9c.1-.1 0 .6 0 1zm15.5 2.2c-1.2 1.3-3 2-4.9 2-1.9 0-3.6-.7-4.9-2-.6-.6-1.1-1.3-1.3-2.1-.3-.7-.4-1.5-.3-2.3.1-.8.3-1.5.7-2.2.4-.7.9-1.3 1.5-1.8 1.2-1 2.7-1.5 4.3-1.5 1.6 0 3.1.5 4.4 1.5.6.5 1.1 1.1 1.5 1.8.4.7.6 1.4.7 2.2.1.8 0 1.6-.3 2.3-.4.8-.8 1.5-1.4 2.1z" style="fill:#ea7600"/></svg>