<svg xmlns="http://www.w3.org/2000/svg" viewBox="0 0 100 100" style="enable-background:new 0 0 100 100" xml:space="preserve"><style>.st0{display:none}.st1{fill:none}.st1,.st2{display:inline;stroke:#000;stroke-width:2;stroke-miterlimit:10}.st2,.st4,.st6{fill:none;stroke-linecap:round;stroke-linejoin:round}.st4{stroke:#000;stroke-width:2}.st6{stroke:#f5f5f5;stroke-miterlimit:10}</style><g id="Слой_5"><path class="st6" d="M5.1 60.8V14.6c0-2.7 2.2-4.8 4.8-4.8h80.4c2.7 0 4.8 2.2 4.8 4.8V64c0 2.7-2.2 4.8-4.8 4.8H31.9"/><path class="st6" d="M7.4 60.6V15.2c0-1.9 1.5-3.4 3.4-3.4h79.1c1.9 0 3.4 1.5 3.4 3.4v48.1c0 1.9-1.5 3.4-3.4 3.4H32.2M69.4 89.3H30.7c-.6 0-1.2-.5-1.2-1.2v-2.7c0-.6.5-1.2 1.2-1.2h38.7c.6 0 1.2.5 1.2 1.2v2.7c0 .6-.5 1.2-1.2 1.2z"/><path class="st6" d="M36.2 68.8H64v15.5H36.2zM25.8 34.5H13.5c-1.2 0-2.3-1-2.3-2.3V19.9c0-1.2 1-2.3 2.3-2.3h12.3c1.2 0 2.3 1 2.3 2.3v12.3c0 1.3-1.1 2.3-2.3 2.3zM46.1 34.5H33.8c-1.2 0-2.3-1-2.3-2.3V19.9c0-1.2 1-2.3 2.3-2.3h12.3c1.2 0 2.3 1 2.3 2.3v12.3c-.1 1.3-1.1 2.3-2.3 2.3zM25.8 54.8H13.5c-1.2 0-2.3-1-2.3-2.3V40.2c0-1.2 1-2.3 2.3-2.3h12.3c1.2 0 2.3 1 2.3 2.3v12.3c0 1.2-1.1 2.3-2.3 2.3zM46.1 54.8H33.8c-1.2 0-2.3-1-2.3-2.3V40.2c0-1.2 1-2.3 2.3-2.3h12.3c1.2 0 2.3 1 2.3 2.3v12.3c-.1 1.2-1.1 2.3-2.3 2.3z"/><path style="fill:none;stroke:#f5f5f5;stroke-width:2;stroke-linecap:round;stroke-linejoin:round;stroke-miterlimit:10" d="M61.3 20.3h18"/><path class="st6" d="M55 26.1h31.3M55 29.1h31.3M55 32.1h31.3M55 35.1h31.3M55 38.1h31.3M55 41.1h31.3"/><circle class="st6" cx="57.5" cy="51.4" r="2.5"/><circle class="st6" cx="65.5" cy="51.4" r="2.5"/><circle class="st6" cx="73.5" cy="51.4" r="2.5"/></g><path d="M29.6 76.5v-2.9h-2.1c-.1-1-.4-1.9-.8-2.8l1.8-1-1.5-2.5-1.8 1.1c-.6-.8-1.3-1.4-2-2l1.1-1.9-2.5-1.5-1.1 1.9c-.9-.3-1.8-.6-2.7-.7V62h-3v2.2c-1 .1-1.9.4-2.7.7L11.2 63l-2.5 1.5 1.1 1.9c-.7.6-1.4 1.2-2 2l-1.9-1.1-1.5 2.5 1.9 1.1c-.4.9-.6 1.8-.7 2.7H3.3v2.9h2.2c.1 1 .4 1.9.7 2.8l-1.8 1.1 1.5 2.5 1.8-1.1c.6.8 1.3 1.5 2 2.1l-1 1.8 2.5 1.5 1-1.8c.9.4 1.8.6 2.8.8v2h2.9v-2c1-.1 1.9-.4 2.8-.7l1 1.7 2.5-1.5-1-1.7c.8-.6 1.5-1.3 2.1-2.1l1.7 1 1.5-2.5-1.8-1c.4-.9.6-1.8.7-2.8h2.2zM16.5 79c-2.2 0-3.9-1.8-3.9-3.9 0-2.2 1.8-3.9 3.9-3.9 2.2 0 3.9 1.8 3.9 3.9 0 2.1-1.7 3.9-3.9 3.9z" style="fill:none;stroke:#f5f5f5;stroke-miterlimit:10" id="Слой_7"/></svg>