<svg version="1.1" id="Слой_1" xmlns="http://www.w3.org/2000/svg" x="0" y="0" viewBox="0 0 800 800" style="enable-background:new 0 0 800 800" xml:space="preserve"><style>.st0{fill:#f5f5f5}</style><path class="st0" d="M398.5 10.9C178.4 10.9 0 189.3 0 409.4c0 176 114.2 325.4 272.5 378.1 19.9 3.7 27.2-8.6 27.2-19.2 0-9.5-.4-40.9-.5-74.2-110.9 24.1-134.2-47-134.2-47-18.1-46.1-44.2-58.3-44.2-58.3-36.2-24.7 2.7-24.2 2.7-24.2 40 2.8 61.1 41.1 61.1 41.1 35.5 60.9 93.2 43.3 115.9 33.1 3.6-25.8 13.9-43.3 25.3-53.3-88.5-10.1-181.5-44.2-181.5-196.9 0-43.5 15.6-79 41.1-107-4.1-10-17.8-50.6 3.9-105.4 0 0 33.5-10.7 109.6 40.8 31.8-8.8 65.9-13.3 99.7-13.4 33.9.1 68 4.6 99.8 13.4 76.1-51.6 109.5-40.8 109.5-40.8 21.7 54.9 8 95.4 3.9 105.4 25.5 27.9 41 63.4 41 107 0 153-93.2 186.7-181.9 196.6 14.3 12.4 27 36.6 27 73.8 0 53.3-.5 96.2-.5 109.3 0 10.6 7.2 23 27.4 19.1 158.2-52.7 272.3-202 272.3-378-.2-220.1-178.6-398.5-398.6-398.5"/><path class="st0" d="M149.2 578.5c-.9 2-4 2.6-6.8 1.2-2.9-1.3-4.5-4-3.6-6 .9-2 4-2.6 6.9-1.2 2.9 1.3 4.5 4.1 3.5 6m19.6 17.5c-1.9 1.8-5.6.9-8.1-1.8-2.6-2.8-3.1-6.5-1.2-8.3 2-1.8 5.6-.9 8.2 1.8 2.6 2.9 3.1 6.6 1.1 8.3m13.5 22.4c-2.4 1.7-6.4.1-8.9-3.4-2.4-3.5-2.4-7.8.1-9.5 2.5-1.7 6.4-.2 8.9 3.3 2.4 3.6 2.4 7.9-.1 9.6m22.7 25.9c-2.2 2.4-6.8 1.8-10.2-1.5-3.5-3.2-4.5-7.8-2.3-10.2 2.2-2.4 6.9-1.7 10.3 1.5 3.5 3.2 4.6 7.8 2.2 10.2m29.4 8.8c-1 3.1-5.4 4.5-10 3.2-4.5-1.4-7.5-5-6.5-8.2.9-3.1 5.4-4.6 10-3.2 4.5 1.4 7.4 5 6.5 8.2m33.5 3.7c.1 3.3-3.7 6-8.5 6.1-4.8.1-8.6-2.6-8.7-5.8 0-3.3 3.7-6 8.5-6.1 4.8-.1 8.7 2.5 8.7 5.8m32.8-1.3c.6 3.2-2.7 6.5-7.4 7.4-4.6.8-8.9-1.1-9.5-4.3-.6-3.3 2.8-6.6 7.4-7.4 4.7-.9 8.9 1.1 9.5 4.3"/></svg>