<?xml version="1.0" encoding="utf-8"?>
<!-- Generator: Adobe Illustrator 25.0.1, SVG Export Plug-In . SVG Version: 6.00 Build 0)  -->
<svg version="1.1" id="Layer_1" xmlns="http://www.w3.org/2000/svg" xmlns:xlink="http://www.w3.org/1999/xlink" x="0px" y="0px"
	 viewBox="0 0 122.9 122.9" style="enable-background:new 0 0 122.9 122.9;" xml:space="preserve">
<style type="text/css">
	.st0{fill-rule:evenodd;clip-rule:evenodd;fill:#F5F5F5;}
</style>
<path class="st0" d="M97.7,0H25.2C11.3,0,0,11.3,0,25.2v72.5c0,13.9,11.3,25.2,25.2,25.2h72.5c13.9,0,25.2-11.3,25.2-25.2V25.2
	C122.8,11.3,111.6,0,97.7,0z M43.7,90.2H30.4V50.4h13.3V90.2z M37.1,46c-3.7,0-6.7-3-6.7-6.6c0-3.7,3-6.7,6.6-6.7c0,0,0,0,0,0
	c3.7,0,6.6,3,6.6,6.6C43.7,43,40.8,45.9,37.1,46z M92.4,90.2H79.7V71.3c0-4.5-0.1-10.3-6.7-10.3s-7.7,4.9-7.7,10v19.2H52.6V50.4
	h12.3v6.3H65c1.7-3.1,5.9-6.3,12.1-6.3c12.9,0,15.3,8,15.3,18.5V90.2z"/>
</svg>
