<svg xmlns="http://www.w3.org/2000/svg" viewBox="0 0 30 30" style="enable-background:new 0 0 30 30" xml:space="preserve"><path d="M6.4 16.5v-6c0-4.9 4-9 9-9 4.9 0 9 4 9 9v6" style="fill:none;stroke:#f5f5f5;stroke-width:3;stroke-miterlimit:10"/><path d="M25.9 11.5h-21c-1.1 0-2 .9-2 2v8.9c0 3.9 3.2 7.1 7.1 7.1h10.8c3.9 0 7.1-3.2 7.1-7.1v-8.9c0-1.1-.9-2-2-2zM15.4 25.3c-1.6 0-2.8-1.3-2.8-2.8 0-1.2.8-2.3 1.9-2.7l-.5-3c-.1-.4.3-.8.7-.8h1.4c.4 0 .7.4.7.8l-.4 3.1c1.1.4 1.9 1.4 1.9 2.7-.1 1.5-1.4 2.7-2.9 2.7z" style="fill:#f5f5f5"/></svg>