<svg xmlns="http://www.w3.org/2000/svg" viewBox="0 0 100 100" style="enable-background:new 0 0 100 100" xml:space="preserve"><style>.st0{display:none}.st1{fill:none;stroke:#f5f5f5;stroke-miterlimit:10}.st1,.st2{display:inline}.st2,.st3{fill:none;stroke:#f5f5f5;stroke-linecap:round;stroke-linejoin:round;stroke-miterlimit:10}</style><g id="Слой_1"><path class="st3" d="M29.6 76.5v-2.9h-2.1c-.1-1-.4-1.9-.8-2.8l1.8-1-1.5-2.5-1.8 1.1c-.6-.8-1.3-1.4-2-2l1.1-1.9-2.5-1.5-1.1 1.9c-.9-.3-1.8-.6-2.7-.7V62h-3v2.2c-1 .1-1.9.4-2.7.7L11.2 63l-2.5 1.5 1.1 1.9c-.7.6-1.4 1.2-2 2l-1.9-1.1-1.5 2.5 1.9 1.1c-.4.9-.6 1.8-.7 2.7H3.3v2.9h2.2c.1 1 .4 1.9.7 2.8l-1.8 1.1 1.5 2.5 1.8-1.1c.6.8 1.3 1.5 2 2.1l-1 1.8 2.5 1.5 1-1.8c.9.4 1.8.6 2.8.8v2h2.9v-2c1-.1 1.9-.4 2.8-.7l1 1.7 2.5-1.5-1-1.7c.8-.6 1.5-1.3 2.1-2.1l1.7 1 1.5-2.5-1.8-1c.4-.9.6-1.8.7-2.8l2.2-.1h0zM16.5 79c-2.2 0-3.9-1.8-3.9-3.9 0-2.2 1.8-3.9 3.9-3.9 2.2 0 3.9 1.8 3.9 3.9S18.7 79 16.5 79z" id="Слой_7"/></g><g id="Слой_2"><path class="st3" d="M24.3 60.6V13.2c0-3.4 2.7-6.1 6.1-6.1h36.7c3.4 0 6.1 2.7 6.1 6.1v64.6c0 3.4-2.7 6.1-6.1 6.1H30.4"/><path class="st3" d="M26.4 62V15.1c0-3.4 2.7-6.1 6.1-6.1H65c3.4 0 6.1 2.7 6.1 6.1V76c0 3.4-2.7 6.1-6.1 6.1H32.5"/><circle cx="48.8" cy="77.3" r="1.9" style="fill:#f5f5f5"/><path class="st3" d="M43.2 12.5h10.6M30.9 25h14v23.6h-14zM48.5 25h19.8v10.2H48.5zM48.5 38.9h19.8v9.7H48.5zM30.9 52.3h37.4v18.9H30.9z"/></g></svg>